<?xml version="1.0" encoding="UTF-8" standalone="no"?>
<!-- Created with Inkscape (http://www.inkscape.org/) -->

<svg
   version="1.1"
   id="svg1"
   width="545.33331"
   height="545.33331"
   viewBox="0 0 545.33331 545.33331"
   xmlns="http://www.w3.org/2000/svg"
   xmlns:svg="http://www.w3.org/2000/svg">
  <defs
     id="defs1">
    <clipPath
       clipPathUnits="userSpaceOnUse"
       id="clipPath2">
      <path
         d="M 0,409 H 409 V 0 H 0 Z"
         transform="translate(-204.50041,-2.0002001)"
         id="path2" />
    </clipPath>
    <clipPath
       clipPathUnits="userSpaceOnUse"
       id="clipPath4">
      <path
         d="M 0,409 H 409 V 0 H 0 Z"
         transform="translate(-386.78951,-204.50021)"
         id="path4" />
    </clipPath>
    <clipPath
       clipPathUnits="userSpaceOnUse"
       id="clipPath6">
      <path
         d="M 0,409 H 409 V 0 H 0 Z"
         transform="translate(-69.827602,-204.50021)"
         id="path6" />
    </clipPath>
    <clipPath
       clipPathUnits="userSpaceOnUse"
       id="clipPath8">
      <path
         d="M 0,409 H 409 V 0 H 0 Z"
         transform="translate(-100.4164,-91.540302)"
         id="path8" />
    </clipPath>
    <clipPath
       clipPathUnits="userSpaceOnUse"
       id="clipPath10">
      <path
         d="M 0,409 H 409 V 0 H 0 Z"
         transform="translate(-108.852,-68.207202)"
         id="path10" />
    </clipPath>
    <clipPath
       clipPathUnits="userSpaceOnUse"
       id="clipPath12">
      <path
         d="M 0,409 H 409 V 0 H 0 Z"
         transform="translate(-130.06,-67.433802)"
         id="path12" />
    </clipPath>
    <clipPath
       clipPathUnits="userSpaceOnUse"
       id="clipPath14">
      <path
         d="M 0,409 H 409 V 0 H 0 Z"
         transform="translate(-163.19961,-56.654501)"
         id="path14" />
    </clipPath>
    <clipPath
       clipPathUnits="userSpaceOnUse"
       id="clipPath16">
      <path
         d="M 0,409 H 409 V 0 H 0 Z"
         transform="translate(-180.95061,-50.771704)"
         id="path16" />
    </clipPath>
    <clipPath
       clipPathUnits="userSpaceOnUse"
       id="clipPath18">
      <path
         d="M 0,409 H 409 V 0 H 0 Z"
         transform="translate(-196.0815,-43.008004)"
         id="path18" />
    </clipPath>
    <clipPath
       clipPathUnits="userSpaceOnUse"
       id="clipPath20">
      <path
         d="M 0,409 H 409 V 0 H 0 Z"
         transform="translate(-243.64881,-36.204303)"
         id="path20" />
    </clipPath>
    <clipPath
       clipPathUnits="userSpaceOnUse"
       id="clipPath22">
      <path
         d="M 0,409 H 409 V 0 H 0 Z"
         transform="translate(-245.92521,-56.593001)"
         id="path22" />
    </clipPath>
    <clipPath
       clipPathUnits="userSpaceOnUse"
       id="clipPath24">
      <path
         d="M 0,409 H 409 V 0 H 0 Z"
         transform="translate(-267.5473,-68.959204)"
         id="path24" />
    </clipPath>
    <clipPath
       clipPathUnits="userSpaceOnUse"
       id="clipPath26">
      <path
         d="M 0,409 H 409 V 0 H 0 Z"
         transform="translate(-289.41351,-60.792199)"
         id="path26" />
    </clipPath>
    <clipPath
       clipPathUnits="userSpaceOnUse"
       id="clipPath28">
      <path
         d="M 0,409 H 409 V 0 H 0 Z"
         transform="translate(-296.6488,-65.820499)"
         id="path28" />
    </clipPath>
    <clipPath
       clipPathUnits="userSpaceOnUse"
       id="clipPath30">
      <path
         d="M 0,409 H 409 V 0 H 0 Z"
         transform="translate(-302.61171,-86.3576)"
         id="path30" />
    </clipPath>
    <clipPath
       clipPathUnits="userSpaceOnUse"
       id="clipPath32">
      <path
         d="M 0,409 H 409 V 0 H 0 Z"
         transform="translate(-308.13811,-96.881105)"
         id="path32" />
    </clipPath>
    <clipPath
       clipPathUnits="userSpaceOnUse"
       id="clipPath34">
      <path
         d="M 0,409 H 409 V 0 H 0 Z"
         transform="translate(-331.85291,-87.498305)"
         id="path34" />
    </clipPath>
    <clipPath
       clipPathUnits="userSpaceOnUse"
       id="clipPath36">
      <path
         d="M 0,409 H 409 V 0 H 0 Z"
         transform="translate(-326.48091,-118.2688)"
         id="path36" />
    </clipPath>
    <clipPath
       clipPathUnits="userSpaceOnUse"
       id="clipPath38">
      <path
         d="M 0,409 H 409 V 0 H 0 Z"
         transform="translate(-139.3617,-177.92701)"
         id="path38" />
    </clipPath>
    <clipPath
       clipPathUnits="userSpaceOnUse"
       id="clipPath40">
      <path
         d="M 0,409 H 409 V 0 H 0 Z"
         transform="translate(-301.96621,-243.21901)"
         id="path40" />
    </clipPath>
    <clipPath
       clipPathUnits="userSpaceOnUse"
       id="clipPath42">
      <path
         d="M 0,409 H 409 V 0 H 0 Z"
         transform="translate(-342.88811,-66.111499)"
         id="path42" />
    </clipPath>
    <clipPath
       clipPathUnits="userSpaceOnUse"
       id="clipPath44">
      <path
         d="M 0,409 H 409 V 0 H 0 Z"
         transform="translate(-307.74161,-242.59301)"
         id="path44" />
    </clipPath>
    <clipPath
       clipPathUnits="userSpaceOnUse"
       id="clipPath46">
      <path
         d="M 0,409 H 409 V 0 H 0 Z"
         transform="translate(-87.4555,-306.94261)"
         id="path46" />
    </clipPath>
    <clipPath
       clipPathUnits="userSpaceOnUse"
       id="clipPath48">
      <path
         d="M 0,409 H 409 V 0 H 0 Z"
         transform="translate(-96.990602,-338.09451)"
         id="path48" />
    </clipPath>
    <clipPath
       clipPathUnits="userSpaceOnUse"
       id="clipPath50">
      <path
         d="M 0,409 H 409 V 0 H 0 Z"
         transform="translate(-113.1108,-349.55391)"
         id="path50" />
    </clipPath>
    <clipPath
       clipPathUnits="userSpaceOnUse"
       id="clipPath52">
      <path
         d="M 0,409 H 409 V 0 H 0 Z"
         transform="translate(-130.894,-358.74391)"
         id="path52" />
    </clipPath>
    <clipPath
       clipPathUnits="userSpaceOnUse"
       id="clipPath54">
      <path
         d="M 0,409 H 409 V 0 H 0 Z"
         transform="translate(-168.9447,-348.76101)"
         id="path54" />
    </clipPath>
    <clipPath
       clipPathUnits="userSpaceOnUse"
       id="clipPath56">
      <path
         d="M 0,409 H 409 V 0 H 0 Z"
         transform="translate(-192.5092,-359.10181)"
         id="path56" />
    </clipPath>
    <clipPath
       clipPathUnits="userSpaceOnUse"
       id="clipPath58">
      <path
         d="M 0,409 H 409 V 0 H 0 Z"
         transform="translate(-211.0414,-370.62471)"
         id="path58" />
    </clipPath>
    <clipPath
       clipPathUnits="userSpaceOnUse"
       id="clipPath60">
      <path
         d="M 0,409 H 409 V 0 H 0 Z"
         transform="translate(-246.00331,-359.62811)"
         id="path60" />
    </clipPath>
    <clipPath
       clipPathUnits="userSpaceOnUse"
       id="clipPath62">
      <path
         d="M 0,409 H 409 V 0 H 0 Z"
         transform="translate(-266.65081,-339.00611)"
         id="path62" />
    </clipPath>
    <clipPath
       clipPathUnits="userSpaceOnUse"
       id="clipPath64">
      <path
         d="M 0,409 H 409 V 0 H 0 Z"
         transform="translate(-286.80121,-353.98021)"
         id="path64" />
    </clipPath>
    <clipPath
       clipPathUnits="userSpaceOnUse"
       id="clipPath66">
      <path
         d="M 0,409 H 409 V 0 H 0 Z"
         transform="translate(-295.12251,-321.54511)"
         id="path66" />
    </clipPath>
    <clipPath
       clipPathUnits="userSpaceOnUse"
       id="clipPath68">
      <path
         d="M 0,409 H 409 V 0 H 0 Z"
         transform="translate(-297.34321,-319.63641)"
         id="path68" />
    </clipPath>
    <clipPath
       clipPathUnits="userSpaceOnUse"
       id="clipPath70">
      <path
         d="M 0,409 H 409 V 0 H 0 Z"
         transform="translate(-309.47011,-308.61011)"
         id="path70" />
    </clipPath>
    <clipPath
       clipPathUnits="userSpaceOnUse"
       id="clipPath72">
      <path
         d="M 0,409 H 409 V 0 H 0 Z"
         transform="translate(-129.6508,-186.9133)"
         id="path72" />
    </clipPath>
    <clipPath
       clipPathUnits="userSpaceOnUse"
       id="clipPath74">
      <path
         d="M 0,409 H 409 V 0 H 0 Z"
         transform="translate(-255.7309,-271.89871)"
         id="path74" />
    </clipPath>
    <clipPath
       clipPathUnits="userSpaceOnUse"
       id="clipPath76">
      <path
         d="M 0,409 H 409 V 0 H 0 Z"
         transform="translate(-177.4819,-34.401603)"
         id="path76" />
    </clipPath>
    <clipPath
       clipPathUnits="userSpaceOnUse"
       id="clipPath78">
      <path
         d="M 0,409 H 409 V 0 H 0 Z"
         transform="translate(-113.89881,-77.914302)"
         id="path78" />
    </clipPath>
    <clipPath
       clipPathUnits="userSpaceOnUse"
       id="clipPath80">
      <path
         d="M 0,409 H 409 V 0 H 0 Z"
         transform="translate(-121.5912,-53.768801)"
         id="path80" />
    </clipPath>
    <clipPath
       clipPathUnits="userSpaceOnUse"
       id="clipPath82">
      <path
         d="M 0,409 H 409 V 0 H 0 Z"
         transform="translate(-194.9037,-51.187699)"
         id="path82" />
    </clipPath>
    <clipPath
       clipPathUnits="userSpaceOnUse"
       id="clipPath84">
      <path
         d="M 0,409 H 409 V 0 H 0 Z"
         transform="translate(-320.61861,-101.008)"
         id="path84" />
    </clipPath>
    <clipPath
       clipPathUnits="userSpaceOnUse"
       id="clipPath86">
      <path
         d="M 0,409 H 409 V 0 H 0 Z"
         transform="translate(-251.25241,-55.687699)"
         id="path86" />
    </clipPath>
    <clipPath
       clipPathUnits="userSpaceOnUse"
       id="clipPath88">
      <path
         d="M 0,409 H 409 V 0 H 0 Z"
         transform="translate(-299.19081,-67.539304)"
         id="path88" />
    </clipPath>
    <clipPath
       clipPathUnits="userSpaceOnUse"
       id="clipPath90">
      <path
         d="M 0,409 H 409 V 0 H 0 Z"
         transform="translate(-210.2494,-368.84301)"
         id="path90" />
    </clipPath>
    <clipPath
       clipPathUnits="userSpaceOnUse"
       id="clipPath92">
      <path
         d="M 0,409 H 409 V 0 H 0 Z"
         transform="translate(-186.61761,-376.52171)"
         id="path92" />
    </clipPath>
    <clipPath
       clipPathUnits="userSpaceOnUse"
       id="clipPath94">
      <path
         d="M 0,409 H 409 V 0 H 0 Z"
         transform="translate(-108.4965,-348.70381)"
         id="path94" />
    </clipPath>
    <clipPath
       clipPathUnits="userSpaceOnUse"
       id="clipPath96">
      <path
         d="M 0,409 H 409 V 0 H 0 Z"
         transform="translate(-100.2309,-84.836202)"
         id="path96" />
    </clipPath>
    <clipPath
       clipPathUnits="userSpaceOnUse"
       id="clipPath98">
      <path
         d="M 0,409 H 409 V 0 H 0 Z"
         transform="translate(-103.2924,-322.45431)"
         id="path98" />
    </clipPath>
    <clipPath
       clipPathUnits="userSpaceOnUse"
       id="clipPath100">
      <path
         d="M 0,409 H 409 V 0 H 0 Z"
         transform="translate(-92.572705,-75.741402)"
         id="path100" />
    </clipPath>
    <clipPath
       clipPathUnits="userSpaceOnUse"
       id="clipPath102">
      <path
         d="M 0,409 H 409 V 0 H 0 Z"
         transform="translate(-136.57371,-341.55341)"
         id="path102" />
    </clipPath>
    <clipPath
       clipPathUnits="userSpaceOnUse"
       id="clipPath104">
      <path
         d="M 0,409 H 409 V 0 H 0 Z"
         transform="translate(-282.61951,-343.05981)"
         id="path104" />
    </clipPath>
    <clipPath
       clipPathUnits="userSpaceOnUse"
       id="clipPath106">
      <path
         d="M 0,409 H 409 V 0 H 0 Z"
         transform="translate(-330.49941,-82.581305)"
         id="path106" />
    </clipPath>
    <clipPath
       clipPathUnits="userSpaceOnUse"
       id="clipPath108">
      <path
         d="M 0,409 H 409 V 0 H 0 Z"
         transform="translate(-163.2973,-193.052)"
         id="path108" />
    </clipPath>
    <clipPath
       clipPathUnits="userSpaceOnUse"
       id="clipPath110">
      <path
         d="M 0,409 H 409 V 0 H 0 Z"
         transform="translate(-293.8363,-272.1755)"
         id="path110" />
    </clipPath>
  </defs>
  <g
     id="layer-MC0">
    <path
       id="path1"
       d="M 0,0 C -111.838,0 -202.5,90.662 -202.5,202.5 -202.5,314.337 -111.838,405 0,405 111.837,405 202.5,314.337 202.5,202.5 202.5,90.662 111.837,0 0,0 m 188.428,282.101 c -10.3,24.352 -25.045,46.222 -43.825,65.002 -18.781,18.78 -40.65,33.525 -65.002,43.825 C 54.388,401.593 27.606,407 0,407 c -27.606,0 -54.389,-5.407 -79.602,-16.072 -24.351,-10.3 -46.221,-25.045 -65.002,-43.825 -18.78,-18.78 -33.525,-40.65 -43.825,-65.002 -10.664,-25.213 -16.071,-51.995 -16.071,-79.601 0,-27.606 5.407,-54.389 16.071,-79.602 10.3,-24.351 25.045,-46.221 43.825,-65.002 18.781,-18.78 40.651,-33.525 65.002,-43.825 C -54.389,3.407 -27.606,-2 0,-2 c 27.606,0 54.388,5.407 79.601,16.071 24.352,10.3 46.221,25.045 65.002,43.825 18.78,18.781 33.525,40.651 43.825,65.002 10.665,25.213 16.072,51.996 16.072,79.602 0,27.606 -5.407,54.388 -16.072,79.601"
       style="fill:#000000;fill-opacity:1;fill-rule:nonzero;stroke:none"
       transform="matrix(1.3333333,0,0,-1.3333333,272.6672,542.6664)"
       clip-path="url(#clipPath2)" />
    <path
       id="path3"
       d="m 0,0 c 0,-48.691 -18.962,-94.469 -53.392,-128.898 -71.073,-71.075 -186.72,-71.075 -257.795,0 -34.43,34.429 -53.392,80.207 -53.392,128.898 0,48.691 18.962,94.468 53.392,128.898 34.429,34.43 80.206,53.391 128.898,53.391 48.691,0 94.468,-18.961 128.897,-53.391 C -18.961,94.468 0,48.691 0,0 m -43.901,138.388 c -36.965,36.965 -86.113,57.322 -138.388,57.322 -52.277,0 -101.424,-20.357 -138.389,-57.322 C -357.643,101.423 -378,52.276 -378,0 c 0,-52.276 20.357,-101.424 57.322,-138.389 38.154,-38.153 88.271,-57.23 138.389,-57.23 50.117,0 100.234,19.077 138.388,57.23 36.964,36.965 57.322,86.113 57.322,138.389 0,52.276 -20.358,101.423 -57.322,138.388"
       style="fill:#000000;fill-opacity:1;fill-rule:nonzero;stroke:none"
       transform="matrix(1.3333333,0,0,-1.3333333,515.71933,272.6664)"
       clip-path="url(#clipPath4)" />
    <path
       id="path5"
       d="m 0,0 c 0,74.258 60.413,134.672 134.672,134.672 74.259,0 134.672,-60.414 134.672,-134.672 0,-74.259 -60.413,-134.672 -134.672,-134.672 C 60.413,-134.672 0,-74.259 0,0 M 134.672,144.328 C 55.089,144.328 -9.656,79.583 -9.656,0 c 0,-79.583 64.745,-144.328 144.328,-144.328 C 214.255,-144.328 279,-79.583 279,0 279,79.583 214.255,144.328 134.672,144.328"
       style="fill:#000000;fill-opacity:1;fill-rule:nonzero;stroke:none"
       transform="matrix(1.3333333,0,0,-1.3333333,93.103467,272.6664)"
       clip-path="url(#clipPath6)" />
    <path
       id="path7"
       d="m 0,0 1.294,-1.151 c 0.61,-0.545 0.928,-1.19 0.95,-1.934 C 2.27,-3.892 1.904,-4.72 1.146,-5.571 0.688,-6.085 0.244,-6.462 -0.186,-6.704 -1.35,-7.352 -2.412,-7.247 -3.372,-6.392 l -1.295,1.152 z m -6.494,-14.711 c -0.429,-0.48 -0.878,-0.843 -1.35,-1.088 -1.366,-0.721 -2.574,-0.614 -3.623,0.319 l -1.292,1.151 5.454,6.125 1.292,-1.152 c 0.765,-0.68 1.13,-1.436 1.095,-2.266 -0.03,-0.912 -0.555,-1.943 -1.576,-3.089 m 3.201,-3.263 c 0.468,0.525 0.852,1.034 1.155,1.528 0.585,0.965 0.953,1.851 1.104,2.657 0.211,1.203 0.088,2.241 -0.367,3.116 0.58,-0.183 1.178,-0.237 1.796,-0.16 1.469,0.178 2.818,0.955 4.042,2.33 0.75,0.842 1.297,1.654 1.646,2.441 0.659,1.467 0.813,2.847 0.458,4.143 -0.409,1.518 -1.225,2.822 -2.447,3.911 l -4.634,4.127 -18.07,-20.293 -0.216,-0.242 5.73,-5.104 c 0.329,-0.292 0.706,-0.534 1.114,-0.742 0.553,-0.282 1.17,-0.496 1.87,-0.623 1.077,-0.196 2.123,-0.109 3.137,0.26 1.298,0.469 2.527,1.353 3.682,2.651"
       style="fill:#000000;fill-opacity:1;fill-rule:nonzero;stroke:none"
       transform="matrix(1.3333333,0,0,-1.3333333,133.88853,423.2796)"
       clip-path="url(#clipPath8)" />
    <path
       id="path9"
       d="m 0,0 -2.499,1.785 7.546,7.922 z m 6.402,16.472 -19.545,-19.418 -0.225,-0.225 3.513,-2.509 0.126,0.127 4.364,4.428 3.519,-2.516 -2.802,-5.548 -0.078,-0.154 3.545,-2.532 0.128,0.263 12.094,24.77 z"
       style="fill:#000000;fill-opacity:1;fill-rule:nonzero;stroke:none"
       transform="matrix(1.3333333,0,0,-1.3333333,145.136,454.3904)"
       clip-path="url(#clipPath10)" />
    <path
       id="path11"
       d="m 0,0 -7.054,-12.536 c -0.315,-0.562 -0.787,-0.937 -1.415,-1.129 -0.627,-0.191 -1.227,-0.126 -1.801,0.196 l -2.178,1.226 9.396,16.702 2.179,-1.226 C -0.312,2.918 0.054,2.443 0.226,1.811 0.397,1.177 0.322,0.573 0,0 m 1.087,6.986 -5.676,3.194 -13.366,-23.76 -0.115,-0.204 5.675,-3.195 c 0.357,-0.2 0.717,-0.36 1.082,-0.489 1.241,-0.439 2.533,-0.471 3.876,-0.087 1.74,0.498 3.054,1.537 3.943,3.117 L 3.548,-1.922 C 4.431,-0.354 4.635,1.3 4.163,3.041 3.692,4.782 2.668,6.098 1.087,6.986"
       style="fill:#000000;fill-opacity:1;fill-rule:nonzero;stroke:none"
       transform="matrix(1.3333333,0,0,-1.3333333,173.41333,455.4216)"
       clip-path="url(#clipPath12)" />
    <path
       id="path13"
       d="m 0,0 7.393,-1.979 1.077,4.025 -11.395,3.051 -7.076,-26.425 -0.036,-0.136 4.003,-1.072 0.013,0.049 3.004,11.219 5.401,-1.446 1.078,4.025 -5.401,1.446 z"
       style="fill:#000000;fill-opacity:1;fill-rule:nonzero;stroke:none"
       transform="matrix(1.3333333,0,0,-1.3333333,217.59947,469.794)"
       clip-path="url(#clipPath14)" />
    <path
       id="path15"
       d="m 0,0 -2.507,-14.831 c -0.11,-0.649 -0.431,-1.162 -0.962,-1.539 -0.53,-0.377 -1.12,-0.511 -1.768,-0.401 -0.649,0.109 -1.165,0.429 -1.55,0.962 -0.385,0.532 -0.522,1.122 -0.412,1.771 l 2.508,14.831 c 0.109,0.649 0.433,1.161 0.97,1.537 0.538,0.377 1.132,0.51 1.782,0.4 C -1.291,2.621 -0.778,2.301 -0.4,1.77 -0.024,1.238 0.109,0.649 0,0 m -1.145,6.776 c -1.773,0.3 -3.4,-0.074 -4.88,-1.12 -1.484,-1.048 -2.376,-2.47 -2.681,-4.273 l -2.5,-14.787 c -0.303,-1.788 0.066,-3.422 1.105,-4.903 0.587,-0.835 1.309,-1.463 2.138,-1.923 0.641,-0.356 1.339,-0.622 2.124,-0.754 0.804,-0.136 1.576,-0.128 2.318,0.009 0.908,0.167 1.771,0.532 2.586,1.108 1.481,1.047 2.374,2.471 2.68,4.272 L 4.244,-0.807 C 4.547,0.98 4.175,2.615 3.129,4.098 2.081,5.578 0.656,6.472 -1.145,6.776"
       style="fill:#000000;fill-opacity:1;fill-rule:nonzero;stroke:none"
       transform="matrix(1.3333333,0,0,-1.3333333,241.26747,477.63773)"
       clip-path="url(#clipPath16)" />
    <path
       id="path17"
       d="m 0,0 c -0.489,-0.438 -1.062,-0.637 -1.719,-0.597 l -2.493,0.154 0.539,8.776 2.495,-0.153 C 0.397,8.082 1.138,7.238 1.04,5.648 L 0.793,1.644 C 0.752,0.986 0.487,0.439 0,0 m -1.026,12.41 -6.523,0.402 -1.676,-27.216 -0.012,-0.207 4.136,-0.254 0.006,0.094 0.631,10.236 2.385,-0.148 c 0.131,-0.008 0.255,-0.015 0.371,-0.022 l 1.854,-10.378 0.019,-0.107 4.473,-0.275 -0.044,0.232 -2.283,11.927 c 1.557,1.252 2.394,2.848 2.513,4.788 L 5.071,5.467 C 5.193,7.45 4.812,9.025 3.934,10.193 2.931,11.529 1.278,12.268 -1.026,12.41"
       style="fill:#000000;fill-opacity:1;fill-rule:nonzero;stroke:none"
       transform="matrix(1.3333333,0,0,-1.3333333,261.442,487.98933)"
       clip-path="url(#clipPath18)" />
    <path
       id="path19"
       d="m 0,0 -7.508,-1.485 -1.455,7.355 5.485,1.086 -0.808,4.087 -5.485,-1.085 -1.456,7.356 7.507,1.486 -0.808,4.087 -11.573,-2.289 5.3,-26.793 0.036,-0.182 11.573,2.289 -0.032,0.156 z"
       style="fill:#000000;fill-opacity:1;fill-rule:nonzero;stroke:none"
       transform="matrix(1.3333333,0,0,-1.3333333,324.86507,497.06093)"
       clip-path="url(#clipPath20)" />
    <path
       id="path21"
       d="m 0,0 2.396,0.715 c 0.616,0.183 1.212,0.117 1.787,-0.2 0.575,-0.317 0.957,-0.789 1.144,-1.42 l 4.112,-13.783 c 0.185,-0.618 0.128,-1.218 -0.17,-1.802 -0.3,-0.585 -0.763,-0.972 -1.394,-1.16 L 5.479,-18.364 Z M 9.174,0.312 C 8.661,2.035 7.614,3.331 6.035,4.203 4.454,5.073 2.796,5.251 1.061,4.732 l -6.242,-1.862 7.812,-26.18 0.05,-0.169 6.24,1.863 c 0.223,0.066 0.417,0.167 0.625,0.251 1.403,0.569 2.496,1.523 3.236,2.914 0.851,1.596 1.017,3.263 0.499,5 z"
       style="fill:#000000;fill-opacity:1;fill-rule:nonzero;stroke:none"
       transform="matrix(1.3333333,0,0,-1.3333333,327.90027,469.876)"
       clip-path="url(#clipPath22)" />
    <path
       id="path23"
       d="m 0,0 -3.992,-1.65 8.104,-19.595 c 0.252,-0.608 0.253,-1.212 0.003,-1.814 -0.25,-0.601 -0.677,-1.028 -1.286,-1.28 -0.608,-0.251 -1.216,-0.253 -1.823,-0.007 -0.61,0.247 -1.039,0.674 -1.29,1.283 l -8.106,19.592 -3.747,-1.55 8.121,-19.633 c 0.693,-1.675 1.87,-2.858 3.532,-3.546 0.933,-0.388 1.872,-0.548 2.815,-0.496 0.733,0.04 1.47,0.204 2.209,0.509 0.725,0.3 1.342,0.708 1.885,1.187 0.713,0.629 1.288,1.395 1.689,2.332 0.709,1.654 0.71,3.332 0.007,5.033 z"
       style="fill:#000000;fill-opacity:1;fill-rule:nonzero;stroke:none"
       transform="matrix(1.3333333,0,0,-1.3333333,356.72973,453.38773)"
       clip-path="url(#clipPath24)" />
    <path
       id="path25"
       d="m 0,0 -3.785,-2.035 1.796,-3.341 c 0.311,-0.58 0.371,-1.183 0.177,-1.811 -0.195,-0.626 -0.582,-1.095 -1.161,-1.407 -0.579,-0.311 -1.18,-0.374 -1.804,-0.186 -0.623,0.188 -1.091,0.571 -1.403,1.15 l -7.122,13.25 c -0.312,0.578 -0.376,1.184 -0.191,1.814 0.183,0.629 0.565,1.1 1.144,1.412 0.579,0.311 1.186,0.372 1.82,0.181 0.633,-0.19 1.106,-0.575 1.418,-1.155 L -7.585,5.034 -3.8,7.068 -5.284,9.83 c -0.859,1.597 -2.153,2.66 -3.882,3.191 -1.73,0.531 -3.398,0.364 -5.008,-0.5 -1.597,-0.86 -2.658,-2.157 -3.186,-3.892 -0.528,-1.736 -0.359,-3.409 0.506,-5.018 l 7.102,-13.21 c 0.858,-1.597 2.154,-2.656 3.887,-3.176 0.895,-0.27 1.773,-0.35 2.636,-0.249 0.806,0.094 1.598,0.347 2.375,0.765 0.782,0.42 1.431,0.948 1.957,1.58 0.54,0.652 0.947,1.413 1.215,2.291 0.532,1.729 0.365,3.399 -0.501,5.008 z"
       style="fill:#000000;fill-opacity:1;fill-rule:nonzero;stroke:none"
       transform="matrix(1.3333333,0,0,-1.3333333,385.88467,464.27707)"
       clip-path="url(#clipPath26)" />
    <path
       id="path27"
       d="M 0,0 -4.796,9.833 2.542,1.719 Z m -5.938,16.656 -4.724,-3.192 11.398,-25.123 0.117,-0.256 3.576,2.417 -0.069,0.146 -2.633,5.65 3.584,2.423 4.222,-4.563 0.117,-0.127 3.611,2.44 -0.218,0.228 z"
       style="fill:#000000;fill-opacity:1;fill-rule:nonzero;stroke:none"
       transform="matrix(1.3333333,0,0,-1.3333333,395.53173,457.57267)"
       clip-path="url(#clipPath28)" />
    <path
       id="path29"
       d="m 0,0 3.413,2.752 -2.615,3.244 -10.071,-8.122 2.616,-3.243 3.43,2.766 14.523,-18.007 0.109,-0.136 3.227,2.601 -0.114,0.142 z"
       style="fill:#000000;fill-opacity:1;fill-rule:nonzero;stroke:none"
       transform="matrix(1.3333333,0,0,-1.3333333,403.48227,430.18987)"
       clip-path="url(#clipPath30)" />
    <path
       id="path31"
       d="m 0,0 -3.025,-2.832 18.647,-19.915 0.132,-0.141 3.024,2.833 -0.132,0.142 z"
       style="fill:#000000;fill-opacity:1;fill-rule:nonzero;stroke:none"
       transform="matrix(1.3333333,0,0,-1.3333333,410.8508,416.15853)"
       clip-path="url(#clipPath32)" />
    <path
       id="path33"
       d="m 0,0 c -0.444,-0.485 -0.994,-0.744 -1.65,-0.778 -0.656,-0.034 -1.226,0.171 -1.71,0.616 l -11.089,10.164 c -0.486,0.443 -0.739,0.994 -0.763,1.65 -0.023,0.657 0.189,1.227 0.633,1.711 0.443,0.486 0.991,0.742 1.641,0.771 0.651,0.028 1.218,-0.18 1.704,-0.624 L -0.146,3.346 C 0.34,2.901 0.597,2.354 0.624,1.703 0.652,1.053 0.444,0.484 0,0 m -8.251,16.635 c -1.335,1.224 -2.91,1.8 -4.723,1.726 -1.813,-0.074 -3.336,-0.784 -4.571,-2.131 -1.215,-1.326 -1.785,-2.895 -1.712,-4.708 0.074,-1.811 0.784,-3.335 2.131,-4.57 L -6.069,-3.182 c 1.337,-1.225 2.909,-1.803 4.715,-1.735 0.866,0.033 1.662,0.217 2.395,0.541 0.801,0.355 1.524,0.879 2.169,1.582 0.642,0.699 1.1,1.466 1.386,2.296 C 4.855,0.258 4.972,1.065 4.937,1.93 4.862,3.742 4.153,5.266 2.806,6.5 Z"
       style="fill:#000000;fill-opacity:1;fill-rule:nonzero;stroke:none"
       transform="matrix(1.3333333,0,0,-1.3333333,442.47053,428.66893)"
       clip-path="url(#clipPath34)" />
    <path
       id="path35"
       d="m 0,0 14.884,-10.952 -18.144,6.522 -2.757,-3.747 21.892,-16.111 0.254,-0.187 2.456,3.339 -0.15,0.111 -14.031,10.325 17.399,-5.79 0.162,-0.054 2.638,3.585 -0.221,0.163 L 2.457,3.338 Z"
       style="fill:#000000;fill-opacity:1;fill-rule:nonzero;stroke:none"
       transform="matrix(1.3333333,0,0,-1.3333333,435.30787,387.6416)"
       clip-path="url(#clipPath36)" />
    <path
       id="path37"
       d="m 0,0 c -11.369,-8.641 -12.978,-12.561 -12.978,-12.561 -2.485,-1.873 -6.18,-1.125 -8.254,1.671 l -0.306,0.407 c -2.075,2.798 -0.905,6.032 0.744,8.459 1.648,2.426 6.373,6.474 11.083,11.01 2.245,1.801 6.048,5.319 30.284,23.557 0.16,-4.835 0.636,-9.996 1.621,-15.076 C 2.452,2.57 4.521,3.436 0,0 m 23.477,32.643 -0.187,5.6 -4.455,-3.353 C -5.738,16.398 -9.244,13.103 -11.52,11.275 l -0.199,-0.172 C -13.06,9.811 -14.4,8.56 -15.672,7.373 c -3.442,-3.206 -6.16,-5.742 -7.519,-7.745 -2.919,-4.297 -3.16,-8.511 -0.67,-11.867 l 0.302,-0.404 c 1.8,-2.429 4.585,-3.878 7.447,-3.878 h 0.002 c 1.786,0 3.471,0.558 4.874,1.615 l 0.659,0.351 0.27,0.826 c 0.267,0.474 2.542,4.16 12.057,11.391 4.245,3.228 1.081,1.536 22.186,17.463 l 1.46,1.101 -0.35,1.805 c -0.866,4.457 -1.396,9.373 -1.569,14.612"
       style="fill:#000000;fill-opacity:1;fill-rule:nonzero;stroke:none"
       transform="matrix(1.3333333,0,0,-1.3333333,185.8156,308.09733)"
       clip-path="url(#clipPath38)" />
    <path
       id="path39"
       d="m 0,0 c -1.056,-9.878 -5.736,-18.509 -13.191,-24.4 -0.21,-0.081 -0.42,-0.185 -0.633,-0.345 -3.057,-2.286 -7.905,-0.269 -10.754,1.552 -2.804,1.794 -5.375,-2.686 -2.59,-4.466 1.724,-1.101 3.884,-2.104 6.143,-2.705 l -1.853,-1.405 c -0.144,-0.059 -0.292,-0.126 -0.44,-0.218 -3.179,-1.984 -7.711,0.64 -10.497,2.328 -2.845,1.722 -5.423,-2.751 -2.591,-4.466 1.913,-1.157 4.14,-2.307 6.45,-3.012 l -4.72,-3.581 c -3.225,-0.097 -6.439,0.358 -9.148,2.265 -2.719,1.917 -5.28,-2.57 -2.59,-4.466 1.7,-1.199 3.628,-1.963 5.639,-2.425 l -5.227,-3.964 c -0.019,-0.003 -0.036,-0.002 -0.056,-0.005 -2.521,-0.553 -5.536,0.191 -7.254,2.179 -2.178,2.52 -5.793,-1.155 -3.629,-3.657 1.287,-1.489 3.005,-2.501 4.873,-3.116 l -3.804,-2.886 c -0.065,-0.009 -0.126,-0.007 -0.193,-0.021 -2.654,-0.567 -6.94,-0.957 -9.052,1.144 -2.356,2.346 -5.986,-1.31 -3.628,-3.656 1.578,-1.573 3.636,-2.425 5.834,-2.806 l -3.151,-2.389 c -0.089,-0.018 -0.175,-0.024 -0.268,-0.052 -2.368,-0.719 -5.343,-0.624 -7.255,1.144 -2.434,2.25 -6.072,-1.398 -3.629,-3.657 1.289,-1.193 2.824,-2.014 4.462,-2.509 l -3.308,-2.508 c -1.716,-0.23 -3.599,0.042 -4.967,1.173 -1.08,0.895 -2.569,1.071 -3.629,0 -0.915,-0.923 -1.082,-2.762 0,-3.657 0.945,-0.781 1.936,-1.356 2.966,-1.786 l -2.481,-1.881 c -11.006,4.799 -25.033,12.865 -32.542,24.874 -2.584,4.136 -4.564,9.273 -5.893,15.286 31.148,23.505 63.711,48.044 66.678,50.217 3.644,2.667 6.423,3.604 8.451,4.289 0.686,0.233 1.334,0.451 1.935,0.705 1.636,0.697 2.851,2.258 3.423,4.391 0.779,2.906 0.196,6.248 -1.486,8.513 l -0.305,0.413 c -1.134,1.529 -3.285,3.354 -7.084,3.354 -1.256,0 -2.593,-0.19 -4.205,-0.596 -3.176,-0.8 -7.873,-2.728 -18.641,-10.942 -4.396,-3.353 -22.761,-17.172 -42.203,-31.803 l -8.559,-6.44 c 0.029,2.089 0.108,4.209 0.239,6.347 l 63.396,48.08 c 6.03,4.572 13.292,6.989 21,6.989 12.238,0 24.14,-6.155 31.837,-16.466 C -1.801,20.478 1.086,10.195 0,0 m -124.964,-19.572 c 24.546,18.473 47.514,35.396 52.877,39.488 10.659,8.131 14.927,9.762 17.593,10.435 2.667,0.673 6.182,1.126 8.259,-1.671 l 0.302,-0.41 c 2.077,-2.795 1.388,-7.548 -0.742,-8.457 -2.131,-0.905 -5.745,-1.503 -10.96,-5.322 -3.141,-2.3 -35.786,-26.558 -65.708,-49.139 -0.986,5.078 -1.459,10.239 -1.621,15.076 m 27.343,-68.795 c -0.006,-0.002 -0.01,0 -0.016,-0.002 -2.945,-0.505 -5.635,0.662 -8.288,1.808 -1.285,0.557 -2.739,0.399 -3.511,-0.928 -0.641,-1.102 -0.366,-2.983 0.921,-3.538 1.688,-0.731 3.308,-1.375 4.944,-1.84 l -5.774,-4.364 c -2.275,-0.19 -4.563,0.308 -6.588,1.359 -2.937,1.524 -5.533,-2.939 -2.589,-4.466 1.09,-0.567 2.199,-0.997 3.319,-1.322 l -6.297,-4.762 c -1.501,0.011 -3.077,0.45 -4.178,1.351 -1.085,0.888 -2.564,1.074 -3.629,0 -0.912,-0.919 -1.088,-2.767 0,-3.658 0.796,-0.651 1.672,-1.193 2.596,-1.631 l -4.671,-3.532 c -0.076,-0.03 -0.153,-0.051 -0.228,-0.086 -1.236,-0.566 -2.431,0.102 -3.162,1.142 -0.806,1.148 -2.223,1.687 -3.51,0.928 -1.128,-0.665 -1.732,-2.386 -0.92,-3.539 0.68,-0.967 1.459,-1.759 2.312,-2.372 -1.809,-1.104 -3.709,-2.024 -5.678,-2.771 -1.051,-0.052 -2.102,0.171 -2.725,1.028 -0.825,1.135 -2.209,1.698 -3.511,0.929 -1.112,-0.657 -1.75,-2.399 -0.92,-3.539 0.069,-0.093 0.141,-0.178 0.212,-0.266 -1.796,-0.278 -3.626,-0.425 -5.484,-0.425 -12.26,0 -24.172,6.175 -31.867,16.515 -12.995,17.463 -10.446,41.592 5.683,53.786 l 50.796,38.402 c -0.659,-22.159 4.244,-35.153 8.697,-42.297 7.584,-12.173 20.885,-20.542 32.117,-25.824 z M -3.487,32.477 c -8.789,11.774 -22.426,18.804 -36.48,18.804 -8.979,0 -17.447,-2.825 -24.493,-8.168 l -59.343,-45.006 0.002,0.032 -60.864,-46.014 c -18.693,-14.133 -21.765,-41.939 -6.847,-61.986 8.787,-11.808 22.438,-18.858 36.516,-18.858 8.953,0 17.405,2.811 24.44,8.129 l 47.158,35.653 0.051,-0.022 73.106,55.443 c 9.075,6.881 14.762,17.142 16.016,28.89 1.247,11.677 -2.043,23.434 -9.262,33.103"
       style="fill:#000000;fill-opacity:1;fill-rule:nonzero;stroke:none"
       transform="matrix(1.3333333,0,0,-1.3333333,402.6216,221.04133)"
       clip-path="url(#clipPath40)" />
    <path
       id="path41"
       d="m 0,0 c -38.153,-38.153 -88.27,-57.23 -138.388,-57.23 -50.118,0 -100.235,19.077 -138.388,57.23 -36.965,36.965 -57.323,86.112 -57.323,138.389 0,52.276 20.358,101.423 57.323,138.388 36.964,36.965 86.111,57.322 138.388,57.322 52.276,0 101.423,-20.357 138.388,-57.322 C 36.965,239.812 57.322,190.665 57.322,138.389 57.322,86.112 36.965,36.965 0,0 m -138.388,340.889 c -111.838,0 -202.5,-90.663 -202.5,-202.5 0,-111.838 90.662,-202.5 202.5,-202.5 111.837,0 202.5,90.662 202.5,202.5 0,111.837 -90.663,202.5 -202.5,202.5"
       style="fill:#ffffff;fill-opacity:1;fill-rule:nonzero;stroke:none"
       transform="matrix(1.3333333,0,0,-1.3333333,457.18413,457.18467)"
       clip-path="url(#clipPath42)" />
    <path
       id="path43"
       d="m 0,0 c -1.254,-11.748 -6.941,-22.009 -16.017,-28.89 l -73.105,-55.443 -0.052,0.022 -47.157,-35.653 c -7.035,-5.318 -15.487,-8.129 -24.44,-8.129 -14.079,0 -27.729,7.05 -36.516,18.858 -14.918,20.047 -11.847,47.853 6.847,61.986 l 60.864,46.014 -0.002,-0.032 59.343,45.006 c 7.046,5.343 15.513,8.168 24.493,8.168 14.054,0 27.69,-7.03 36.479,-18.804 C -2.043,23.434 1.247,11.677 0,0 m -103.242,96.579 c -74.259,0 -134.672,-60.413 -134.672,-134.672 0,-74.259 60.413,-134.672 134.672,-134.672 74.259,0 134.672,60.413 134.672,134.672 0,74.259 -60.413,134.672 -134.672,134.672"
       style="fill:#ffffff;fill-opacity:1;fill-rule:nonzero;stroke:none"
       transform="matrix(1.3333333,0,0,-1.3333333,410.32213,221.876)"
       clip-path="url(#clipPath44)" />
    <path
       id="path45"
       d="m 0,0 c 1.383,-1.334 3.043,-1.989 4.982,-1.96 1.939,0.028 3.587,0.745 4.943,2.151 1.336,1.382 1.992,3.039 1.969,4.973 C 11.871,7.096 11.158,8.742 9.753,10.1 L 2.368,17.229 -2.531,12.156 0.672,9.062 2.381,10.833 6.533,6.822 C 7.037,6.335 7.293,5.742 7.299,5.041 7.304,4.339 7.062,3.737 6.574,3.231 6.086,2.724 5.493,2.467 4.798,2.455 4.102,2.442 3.501,2.681 2.995,3.168 L -8.57,14.338 c -0.506,0.489 -0.767,1.084 -0.785,1.785 -0.019,0.701 0.217,1.304 0.707,1.81 0.487,0.507 1.085,0.764 1.792,0.778 0.707,0.011 1.313,-0.227 1.819,-0.715 l 2.478,-2.394 3.191,3.305 -2.41,2.328 c -1.395,1.346 -3.058,2.008 -4.992,1.986 -0.138,-0.002 -0.273,-0.015 -0.409,-0.024 -1.756,-0.113 -3.266,-0.815 -4.526,-2.118 -1.26,-1.305 -1.909,-2.853 -1.965,-4.635 -0.004,-0.121 -0.013,-0.24 -0.011,-0.363 0.029,-1.938 0.745,-3.588 2.15,-4.944 z"
       style="fill:#ffffff;fill-opacity:1;fill-rule:nonzero;stroke:none"
       transform="matrix(1.3333333,0,0,-1.3333333,116.60733,136.07653)"
       clip-path="url(#clipPath46)" />
    <path
       id="path47"
       d="m 0,0 10.227,-12.406 c 0.446,-0.543 0.636,-1.161 0.57,-1.853 -0.068,-0.693 -0.371,-1.263 -0.914,-1.71 -0.543,-0.447 -1.164,-0.641 -1.862,-0.578 -0.7,0.06 -1.273,0.363 -1.719,0.907 L -3.924,-3.234 c -0.447,0.543 -0.636,1.163 -0.562,1.86 0.073,0.699 0.381,1.27 0.923,1.719 0.542,0.446 1.16,0.637 1.853,0.571 C -1.017,0.849 -0.447,0.543 0,0 m 2.984,-18.434 c 1.234,-1.496 2.812,-2.343 4.734,-2.539 1.925,-0.196 3.639,0.327 5.146,1.57 1.496,1.232 2.339,2.812 2.531,4.74 0.191,1.931 -0.334,3.648 -1.577,5.156 L 3.623,2.864 C 2.391,4.36 0.81,5.204 -1.12,5.394 -1.273,5.409 -1.424,5.412 -1.575,5.418 -3.319,5.49 -4.888,4.962 -6.274,3.818 -7.658,2.678 -8.472,1.227 -8.731,-0.528 -8.75,-0.655 -8.773,-0.779 -8.786,-0.909 c -0.193,-1.929 0.334,-3.648 1.575,-5.155 z"
       style="fill:#ffffff;fill-opacity:1;fill-rule:nonzero;stroke:none"
       transform="matrix(1.3333333,0,0,-1.3333333,129.3208,94.540667)"
       clip-path="url(#clipPath48)" />
    <path
       id="path49"
       d="m 0,0 8.734,-13.499 c 0.382,-0.59 0.499,-1.225 0.354,-1.906 -0.147,-0.681 -0.515,-1.213 -1.104,-1.595 -0.59,-0.382 -1.229,-0.502 -1.917,-0.36 -0.687,0.142 -1.221,0.507 -1.603,1.099 L -4.27,-2.762 c -0.381,0.59 -0.497,1.227 -0.344,1.912 0.152,0.685 0.524,1.218 1.114,1.6 0.591,0.382 1.226,0.5 1.907,0.355 C -0.913,0.959 -0.382,0.592 0,0 m 0.849,-18.656 c 1.052,-1.626 2.523,-2.649 4.411,-3.064 1.888,-0.417 3.652,-0.094 5.292,0.968 1.626,1.051 2.646,2.525 3.057,4.42 0.412,1.894 0.088,3.662 -0.973,5.301 L 3.928,2.429 C 2.876,4.057 1.402,5.076 -0.493,5.489 -0.672,5.527 -0.85,5.553 -1.026,5.579 -2.72,5.825 -4.31,5.474 -5.795,4.515 -7.265,3.563 -8.21,2.241 -8.684,0.584 -8.729,0.422 -8.797,0.275 -8.833,0.107 -9.245,-1.79 -8.921,-3.557 -7.859,-5.196 Z"
       style="fill:#ffffff;fill-opacity:1;fill-rule:nonzero;stroke:none"
       transform="matrix(1.3333333,0,0,-1.3333333,150.8144,79.261467)"
       clip-path="url(#clipPath50)" />
    <path
       id="path51"
       d="m 0,0 6.799,-13.791 c 0.304,-0.617 0.35,-1.259 0.14,-1.928 C 6.729,-16.388 6.31,-16.881 5.68,-17.19 L 3.282,-18.373 -5.775,0.001 -3.379,1.184 C -2.762,1.485 -2.122,1.523 -1.46,1.292 -0.797,1.061 -0.311,0.63 0,0 m 1.247,-24.262 6.243,3.077 c 1.725,0.852 2.892,2.192 3.503,4.027 0.611,1.835 0.489,3.621 -0.368,5.359 L 3.838,1.971 C 2.988,3.693 1.652,4.874 -0.167,5.509 -0.572,5.65 -0.974,5.748 -1.375,5.816 -2.776,6.053 -4.153,5.844 -5.505,5.178 l -6.243,-3.079 0.612,-1.243 z"
       style="fill:#ffffff;fill-opacity:1;fill-rule:nonzero;stroke:none"
       transform="matrix(1.3333333,0,0,-1.3333333,174.52533,67.008133)"
       clip-path="url(#clipPath52)" />
    <path
       id="path53"
       d="m 0,0 4.347,0.855 -2.406,12.236 5.865,1.153 -0.86,4.369 -5.864,-1.153 -1.546,7.864 8.026,1.579 -0.644,3.279 -0.215,1.09 -12.372,-2.432 0.224,-1.137 z"
       style="fill:#ffffff;fill-opacity:1;fill-rule:nonzero;stroke:none"
       transform="matrix(1.3333333,0,0,-1.3333333,225.2596,80.318667)"
       clip-path="url(#clipPath54)" />
    <path
       id="path55"
       d="m 0,0 c 0.062,-0.701 -0.131,-1.317 -0.578,-1.851 -0.446,-0.535 -1.021,-0.831 -1.721,-0.894 -0.7,-0.061 -1.321,0.131 -1.862,0.577 -0.542,0.446 -0.843,1.019 -0.905,1.721 l -1.413,16.014 c -0.064,0.702 0.133,1.318 0.587,1.853 0.455,0.533 1.034,0.831 1.735,0.892 0.699,0.063 1.316,-0.128 1.849,-0.577 0.534,-0.445 0.831,-1.019 0.894,-1.72 z m -9.382,-0.876 c 0.171,-1.929 0.994,-3.521 2.469,-4.77 1.476,-1.251 3.185,-1.79 5.131,-1.617 1.929,0.171 3.519,0.995 4.769,2.48 1.248,1.483 1.787,3.195 1.617,5.141 l -1.411,15.97 c -0.171,1.93 -0.997,3.52 -2.479,4.769 -0.293,0.246 -0.598,0.457 -0.908,0.648 -1.264,0.778 -2.673,1.106 -4.235,0.969 -1.56,-0.139 -2.894,-0.72 -4.012,-1.729 -0.255,-0.23 -0.502,-0.474 -0.734,-0.749 -1.249,-1.483 -1.789,-3.197 -1.617,-5.143 z"
       style="fill:#ffffff;fill-opacity:1;fill-rule:nonzero;stroke:none"
       transform="matrix(1.3333333,0,0,-1.3333333,256.67893,66.530933)"
       clip-path="url(#clipPath56)" />
    <path
       id="path57"
       d="m 0,0 c -0.021,-0.703 -0.285,-1.296 -0.792,-1.782 -0.507,-0.486 -1.112,-0.716 -1.815,-0.695 l -2.67,0.081 0.283,9.394 2.67,-0.081 C -0.638,6.866 0.181,5.989 0.129,4.287 Z m -5.41,-6.778 2.555,-0.076 c 0.14,-0.005 0.272,-0.009 0.398,-0.014 l 2.351,-11.138 4.789,-0.143 -2.894,12.914 c 1.62,1.389 2.462,3.122 2.524,5.199 L 4.441,4.228 C 4.506,6.352 4.049,8.022 3.068,9.24 2.68,9.727 2.202,10.127 1.648,10.453 c -1.033,0.607 -2.347,0.94 -3.953,0.989 l -6.982,0.21 -0.031,-1.038 -0.852,-28.316 4.428,-0.133 z"
       style="fill:#ffffff;fill-opacity:1;fill-rule:nonzero;stroke:none"
       transform="matrix(1.3333333,0,0,-1.3333333,281.38853,51.167067)"
       clip-path="url(#clipPath58)" />
    <path
       id="path59"
       d="m 0,0 5.134,-1.482 -3.451,-11.957 4.255,-1.229 7.916,27.427 0.227,0.79 L 9.825,14.777 9.629,14.096 6.369,2.797 1.234,4.28 l 3.257,11.284 0.2,0.694 -4.255,1.228 -0.238,-0.821 -7.905,-27.394 4.255,-1.228 z"
       style="fill:#ffffff;fill-opacity:1;fill-rule:nonzero;stroke:none"
       transform="matrix(1.3333333,0,0,-1.3333333,328.0044,65.8292)"
       clip-path="url(#clipPath60)" />
    <path
       id="path61"
       d="m 0,0 1.708,4.111 -7.556,3.139 3.075,7.401 5.519,-2.291 1.707,4.114 -5.519,2.291 3.073,7.402 7.555,-3.137 1.408,3.393 0.299,0.721 -11.646,4.835 -0.307,-0.74 -10.961,-26.405 z"
       style="fill:#ffffff;fill-opacity:1;fill-rule:nonzero;stroke:none"
       transform="matrix(1.3333333,0,0,-1.3333333,355.5344,93.3252)"
       clip-path="url(#clipPath62)" />
    <path
       id="path63"
       d="m 0,0 -4.182,-10.92 -2.869,1.591 z m -13.959,-18.147 4.216,5.379 4.044,-2.241 -2.368,-6.408 4.073,-2.258 L 5.729,3.775 5.947,4.393 0.618,7.349 0.196,6.822 -17.992,-15.91 Z"
       style="fill:#ffffff;fill-opacity:1;fill-rule:nonzero;stroke:none"
       transform="matrix(1.3333333,0,0,-1.3333333,382.4016,73.359733)"
       clip-path="url(#clipPath64)" />
    <path
       id="path65"
       d="m 0,0 2.569,3.58 -6.208,4.454 14.2,19.788 0.352,0.491 L 7.314,30.896 6.899,30.318 -9.807,7.037 Z"
       style="fill:#ffffff;fill-opacity:1;fill-rule:nonzero;stroke:none"
       transform="matrix(1.3333333,0,0,-1.3333333,393.49667,116.60653)"
       clip-path="url(#clipPath66)" />
    <path
       id="path67"
       d="m 0,0 3.394,-2.846 16.012,19.087 3.592,-3.014 2.431,2.899 0.43,0.514 -10.594,8.888 -0.46,-0.549 -2.402,-2.864 3.61,-3.028 z"
       style="fill:#ffffff;fill-opacity:1;fill-rule:nonzero;stroke:none"
       transform="matrix(1.3333333,0,0,-1.3333333,396.4576,119.15147)"
       clip-path="url(#clipPath68)" />
    <path
       id="path69"
       d="m 0,0 9.023,8.57 3.681,-3.876 -9.025,-8.569 3.05,-3.212 20.85,19.799 0.446,0.423 -3.05,3.212 -0.369,-0.35 -8.673,-8.236 -3.68,3.874 8.663,8.225 0.38,0.361 -3.051,3.213 L 17.767,22.98 -3.051,3.211 Z"
       style="fill:#ffffff;fill-opacity:1;fill-rule:nonzero;stroke:none"
       transform="matrix(1.3333333,0,0,-1.3333333,412.6268,133.8532)"
       clip-path="url(#clipPath70)" />
    <path
       id="path71"
       d="m 0,0 c -4.71,-4.536 -9.436,-8.584 -11.083,-11.011 -1.649,-2.427 -2.819,-5.66 -0.744,-8.459 l 0.306,-0.406 c 2.074,-2.796 5.769,-3.544 8.254,-1.671 0,0 1.609,3.92 12.978,12.561 4.52,3.435 2.452,2.57 22.194,17.466 C 30.92,13.561 30.444,18.722 30.284,23.557 6.048,5.318 2.245,1.801 0,0"
       style="fill:#ffffff;fill-opacity:1;fill-rule:nonzero;stroke:none"
       transform="matrix(1.3333333,0,0,-1.3333333,172.86773,296.1156)"
       clip-path="url(#clipPath72)" />
    <path
       id="path73"
       d="m 0,0 c -2.076,2.797 -5.592,2.344 -8.259,1.671 -2.666,-0.673 -6.933,-2.303 -17.593,-10.435 -5.363,-4.091 -28.331,-21.015 -52.877,-39.488 0.163,-4.837 0.635,-9.998 1.622,-15.076 29.921,22.581 62.566,46.839 65.708,49.139 5.214,3.819 8.829,4.417 10.96,5.322 2.129,0.909 2.818,5.662 0.742,8.457 z"
       style="fill:#ffffff;fill-opacity:1;fill-rule:nonzero;stroke:none"
       transform="matrix(1.3333333,0,0,-1.3333333,340.97453,182.80173)"
       clip-path="url(#clipPath74)" />
    <path
       id="path75"
       d="M 0,0 C 0.531,0.377 0.852,0.89 0.962,1.539 L 3.469,16.37 C 3.578,17.02 3.444,17.608 3.068,18.14 2.69,18.671 2.178,18.991 1.529,19.101 0.88,19.21 0.286,19.077 -0.252,18.7 -0.789,18.324 -1.113,17.812 -1.223,17.163 L -3.73,2.332 C -3.84,1.684 -3.703,1.093 -3.318,0.562 -2.934,0.028 -2.417,-0.292 -1.769,-0.401 -1.12,-0.511 -0.53,-0.377 0,0"
       style="fill:#e0241d;fill-opacity:1;fill-rule:nonzero;stroke:none"
       transform="matrix(1.3333333,0,0,-1.3333333,236.64253,499.46453)"
       clip-path="url(#clipPath76)" />
    <path
       id="path77"
       d="m 0,0 -7.546,-7.922 2.499,-1.785 z"
       style="fill:#e0241d;fill-opacity:1;fill-rule:nonzero;stroke:none"
       transform="matrix(1.3333333,0,0,-1.3333333,151.86507,441.4476)"
       clip-path="url(#clipPath78)" />
    <path
       id="path79"
       d="m 0,0 c 0.628,0.192 1.1,0.567 1.415,1.129 l 7.054,12.536 c 0.322,0.573 0.397,1.177 0.225,1.811 -0.172,0.632 -0.538,1.107 -1.098,1.422 L 5.417,18.124 -3.979,1.422 -1.801,0.196 C -1.228,-0.126 -0.627,-0.191 0,0"
       style="fill:#e0241d;fill-opacity:1;fill-rule:nonzero;stroke:none"
       transform="matrix(1.3333333,0,0,-1.3333333,162.1216,473.6416)"
       clip-path="url(#clipPath80)" />
    <path
       id="path81"
       d="m 0,0 -2.495,0.153 -0.539,-8.776 2.493,-0.153 c 0.657,-0.04 1.229,0.158 1.719,0.596 0.487,0.44 0.752,0.987 0.793,1.644 l 0.247,4.005 C 2.315,-0.941 1.575,-0.098 0,0"
       style="fill:#e0241d;fill-opacity:1;fill-rule:nonzero;stroke:none"
       transform="matrix(1.3333333,0,0,-1.3333333,259.8716,477.08307)"
       clip-path="url(#clipPath82)" />
    <path
       id="path83"
       d="M 0,0 C -0.485,0.444 -1.053,0.652 -1.703,0.624 -2.354,0.596 -2.901,0.339 -3.345,-0.146 -3.789,-0.631 -4.001,-1.201 -3.978,-1.857 -3.954,-2.514 -3.7,-3.064 -3.215,-3.508 L 7.874,-13.672 c 0.484,-0.445 1.055,-0.65 1.71,-0.616 0.656,0.034 1.206,0.293 1.65,0.778 0.445,0.485 0.653,1.053 0.624,1.703 -0.027,0.651 -0.284,1.199 -0.769,1.643 z"
       style="fill:#e0241d;fill-opacity:1;fill-rule:nonzero;stroke:none"
       transform="matrix(1.3333333,0,0,-1.3333333,427.49147,410.656)"
       clip-path="url(#clipPath84)" />
    <path
       id="path85"
       d="m 0,0 c -0.187,0.631 -0.569,1.104 -1.145,1.42 -0.574,0.317 -1.17,0.384 -1.787,0.2 l -2.395,-0.715 5.479,-18.364 2.396,0.714 c 0.631,0.188 1.094,0.575 1.393,1.16 0.299,0.584 0.356,1.185 0.171,1.802 z"
       style="fill:#e0241d;fill-opacity:1;fill-rule:nonzero;stroke:none"
       transform="matrix(1.3333333,0,0,-1.3333333,335.0032,471.08307)"
       clip-path="url(#clipPath86)" />
    <path
       id="path87"
       d="m 0,0 -7.338,8.114 4.796,-9.833 z"
       style="fill:#e0241d;fill-opacity:1;fill-rule:nonzero;stroke:none"
       transform="matrix(1.3333333,0,0,-1.3333333,398.92107,455.28093)"
       clip-path="url(#clipPath88)" />
    <path
       id="path89"
       d="m 0,0 c 0.507,0.486 0.771,1.079 0.792,1.782 l 0.129,4.286 c 0.052,1.703 -0.767,2.58 -2.453,2.631 l -2.67,0.08 -0.283,-9.393 2.67,-0.081 C -1.112,-0.716 -0.507,-0.486 0,0"
       style="fill:#e0241d;fill-opacity:1;fill-rule:nonzero;stroke:none"
       transform="matrix(1.3333333,0,0,-1.3333333,280.33253,53.542667)"
       clip-path="url(#clipPath90)" />
    <path
       id="path91"
       d="m 0,0 c -0.454,-0.535 -0.651,-1.151 -0.588,-1.853 l 1.413,-16.014 c 0.063,-0.702 0.363,-1.275 0.905,-1.721 0.541,-0.446 1.163,-0.638 1.863,-0.577 0.7,0.063 1.274,0.359 1.72,0.894 0.448,0.534 0.64,1.15 0.579,1.851 L 4.478,-1.405 C 4.415,-0.704 4.117,-0.13 3.584,0.315 3.051,0.764 2.434,0.956 1.734,0.893 1.033,0.831 0.455,0.533 0,0"
       style="fill:#e0241d;fill-opacity:1;fill-rule:nonzero;stroke:none"
       transform="matrix(1.3333333,0,0,-1.3333333,248.82347,43.3044)"
       clip-path="url(#clipPath92)" />
    <path
       id="path93"
       d="m 0,0 c -0.152,-0.685 -0.037,-1.322 0.345,-1.912 l 8.733,-13.499 c 0.382,-0.591 0.916,-0.957 1.604,-1.099 0.687,-0.142 1.326,-0.022 1.917,0.361 0.589,0.381 0.957,0.913 1.103,1.594 0.146,0.681 0.028,1.316 -0.353,1.906 L 4.614,0.85 C 4.232,1.442 3.701,1.81 3.021,1.955 2.34,2.101 1.705,1.982 1.114,1.601 0.524,1.218 0.152,0.685 0,0"
       style="fill:#e0241d;fill-opacity:1;fill-rule:nonzero;stroke:none"
       transform="matrix(1.3333333,0,0,-1.3333333,144.662,80.394933)"
       clip-path="url(#clipPath94)" />
    <path
       id="path95"
       d="M 0,0 C 0.43,0.242 0.874,0.619 1.332,1.133 2.09,1.984 2.455,2.813 2.43,3.619 2.407,4.363 2.09,5.008 1.479,5.553 L 0.186,6.704 -4.481,1.464 -3.187,0.312 C -2.227,-0.543 -1.164,-0.647 0,0"
       style="fill:#e0241d;fill-opacity:1;fill-rule:nonzero;stroke:none"
       transform="matrix(1.3333333,0,0,-1.3333333,133.6412,432.2184)"
       clip-path="url(#clipPath96)" />
    <path
       id="path97"
       d="m 0,0 c 0.446,-0.543 1.02,-0.847 1.719,-0.907 0.698,-0.063 1.319,0.131 1.862,0.578 0.543,0.447 0.847,1.017 0.914,1.71 0.067,0.692 -0.124,1.31 -0.57,1.853 L -6.302,15.64 c -0.447,0.543 -1.016,0.849 -1.71,0.916 -0.693,0.066 -1.31,-0.125 -1.852,-0.571 -0.543,-0.449 -0.851,-1.02 -0.924,-1.719 -0.073,-0.697 0.115,-1.317 0.562,-1.86 z"
       style="fill:#e0241d;fill-opacity:1;fill-rule:nonzero;stroke:none"
       transform="matrix(1.3333333,0,0,-1.3333333,137.7232,115.39427)"
       clip-path="url(#clipPath98)" />
    <path
       id="path99"
       d="M 0,0 C 0.472,0.245 0.921,0.607 1.35,1.088 2.371,2.233 2.896,3.265 2.926,4.177 2.961,5.007 2.596,5.763 1.831,6.442 L 0.539,7.595 -4.915,1.47 -3.623,0.318 C -2.574,-0.614 -1.366,-0.721 0,0"
       style="fill:#e0241d;fill-opacity:1;fill-rule:nonzero;stroke:none"
       transform="matrix(1.3333333,0,0,-1.3333333,123.43027,444.3448)"
       clip-path="url(#clipPath100)" />
    <path
       id="path101"
       d="M 0,0 C 0.63,0.31 1.05,0.802 1.26,1.471 1.47,2.14 1.423,2.783 1.119,3.399 L -5.68,17.19 c -0.31,0.631 -0.797,1.061 -1.46,1.292 -0.662,0.232 -1.301,0.194 -1.919,-0.108 l -2.396,-1.183 9.058,-18.373 z"
       style="fill:#e0241d;fill-opacity:1;fill-rule:nonzero;stroke:none"
       transform="matrix(1.3333333,0,0,-1.3333333,182.09827,89.9288)"
       clip-path="url(#clipPath102)" />
    <path
       id="path103"
       d="M 0,0 4.182,10.92 -2.869,1.591 Z"
       style="fill:#e0241d;fill-opacity:1;fill-rule:nonzero;stroke:none"
       transform="matrix(1.3333333,0,0,-1.3333333,376.826,87.920267)"
       clip-path="url(#clipPath104)" />
    <path
       id="path105"
       d="m 0,0 c -1.807,-0.068 -3.379,0.51 -4.716,1.735 l -11.056,10.134 c -1.347,1.235 -2.057,2.759 -2.131,4.57 -0.074,1.813 0.497,3.382 1.712,4.708 1.235,1.347 2.757,2.057 4.571,2.131 1.812,0.074 3.388,-0.502 4.723,-1.726 L 4.159,11.417 C 5.507,10.183 6.216,8.659 6.29,6.847 6.325,5.982 6.209,5.175 5.949,4.419 5.663,3.589 5.205,2.822 4.563,2.123 3.919,1.42 3.195,0.896 2.395,0.541 1.661,0.217 0.865,0.033 0,0 m -102.951,-25.779 11.572,2.289 0.809,-4.087 -7.507,-1.485 1.456,-7.357 5.484,1.085 0.809,-4.087 -5.485,-1.086 1.455,-7.355 7.507,1.485 0.777,-3.932 0.031,-0.156 -11.572,-2.289 -0.036,0.182 z m -146.862,273.361 c 1.933,0.022 3.596,-0.64 4.991,-1.986 l 2.41,-2.327 -3.191,-3.306 -2.478,2.394 c -0.506,0.489 -1.112,0.726 -1.819,0.716 -0.707,-0.015 -1.305,-0.272 -1.792,-0.779 -0.49,-0.506 -0.726,-1.108 -0.707,-1.81 0.018,-0.701 0.279,-1.296 0.785,-1.784 l 11.565,-11.171 c 0.506,-0.487 1.107,-0.726 1.803,-0.713 0.695,0.012 1.288,0.269 1.776,0.777 0.489,0.506 0.73,1.108 0.725,1.809 -0.006,0.702 -0.262,1.294 -0.766,1.781 l -4.152,4.011 -1.709,-1.771 -3.203,3.095 4.899,5.073 7.385,-7.13 c 1.405,-1.358 2.118,-3.003 2.141,-4.936 0.023,-1.933 -0.633,-3.59 -1.969,-4.973 -1.356,-1.406 -3.004,-2.123 -4.943,-2.151 -1.939,-0.028 -3.599,0.626 -4.982,1.96 l -11.531,11.137 c -1.404,1.356 -2.121,3.006 -2.15,4.944 -0.002,0.123 0.007,0.242 0.011,0.363 0.056,1.782 0.705,3.33 1.965,4.635 1.26,1.303 2.77,2.005 4.526,2.119 0.136,0.008 0.271,0.022 0.41,0.023 m 132.003,50.915 c 0.554,-0.326 1.032,-0.727 1.42,-1.214 0.981,-1.217 1.438,-2.887 1.373,-5.012 l -0.128,-4.263 c -0.062,-2.078 -0.904,-3.81 -2.524,-5.199 l 2.894,-12.914 -4.789,0.143 -2.351,11.138 c -0.126,0.004 -0.258,0.009 -0.398,0.013 l -2.555,0.076 -0.332,-11.057 -4.428,0.134 0.852,28.316 0.031,1.037 6.982,-0.209 c 1.606,-0.049 2.92,-0.382 3.953,-0.989 m 64.931,-15.649 -1.408,-3.393 -7.555,3.136 -3.073,-7.402 5.519,-2.291 -1.707,-4.113 -5.519,2.291 -3.074,-7.402 7.555,-3.138 -1.708,-4.111 -11.645,4.834 10.962,26.405 0.306,0.739 11.646,-4.835 z m 14.909,-7.674 -9.722,-27.45 -4.074,2.258 2.369,6.408 -4.044,2.241 -4.216,-5.38 -4.033,2.238 18.188,22.732 0.422,0.527 5.329,-2.956 z m 13.154,-8.388 -14.2,-19.788 6.208,-4.454 -2.569,-3.58 -9.807,7.037 16.706,23.281 0.416,0.578 3.598,-2.583 z m 17.088,-13.605 -2.43,-2.899 -3.592,3.014 -16.013,-19.087 -3.393,2.846 16.012,19.087 -3.609,3.028 2.401,2.864 0.46,0.549 10.595,-8.888 z m -76.57,40.53 0.237,0.822 4.256,-1.228 -0.2,-0.694 -3.257,-11.284 5.135,-1.483 3.26,11.299 0.196,0.681 4.256,-1.228 -0.228,-0.79 -7.915,-27.427 -4.255,1.228 3.451,11.957 -5.134,1.483 -3.452,-11.957 -4.255,1.228 z m -133.584,-21.25 c 1.896,-0.413 3.369,-1.431 4.421,-3.059 l 8.708,-13.46 c 1.062,-1.64 1.386,-3.407 0.974,-5.301 -0.411,-1.895 -1.432,-3.369 -3.058,-4.42 -1.64,-1.063 -3.403,-1.385 -5.292,-0.968 -1.888,0.415 -3.358,1.437 -4.411,3.063 l -8.708,13.46 c -1.062,1.64 -1.386,3.407 -0.974,5.304 0.036,0.168 0.104,0.315 0.15,0.477 0.473,1.657 1.419,2.978 2.888,3.93 1.486,0.959 3.076,1.311 4.769,1.065 0.177,-0.026 0.354,-0.052 0.533,-0.091 m 80.606,25.156 c 1.482,-1.249 2.308,-2.839 2.479,-4.769 l 1.41,-15.97 c 0.171,-1.945 -0.368,-3.658 -1.616,-5.141 -1.25,-1.484 -2.84,-2.309 -4.769,-2.48 -1.946,-0.173 -3.656,0.367 -5.131,1.618 -1.475,1.249 -2.298,2.84 -2.469,4.769 l -1.41,15.969 c -0.172,1.947 0.368,3.661 1.617,5.143 0.231,0.275 0.478,0.52 0.733,0.749 1.119,1.01 2.453,1.59 4.013,1.73 1.562,0.137 2.971,-0.192 4.234,-0.969 0.311,-0.192 0.616,-0.402 0.909,-0.649 m -29.948,-2.597 12.372,2.432 0.215,-1.091 0.645,-3.278 -8.027,-1.579 1.546,-7.864 5.865,1.152 0.859,-4.369 -5.864,-1.152 2.405,-12.236 -4.347,-0.855 -5.445,27.703 z m -44.13,-16.759 6.244,3.079 c 1.351,0.667 2.728,0.875 4.13,0.639 0.401,-0.068 0.802,-0.167 1.208,-0.308 1.819,-0.635 3.155,-1.815 4.004,-3.538 l 6.788,-13.769 c 0.857,-1.739 0.979,-3.524 0.368,-5.36 -0.612,-1.835 -1.779,-3.175 -3.503,-4.026 l -6.243,-3.077 -12.383,25.118 z m -30.941,-23.657 c 0.013,0.13 0.036,0.254 0.055,0.381 0.26,1.755 1.073,3.206 2.457,4.346 1.387,1.144 2.955,1.672 4.699,1.601 0.151,-0.007 0.302,-0.01 0.455,-0.025 1.93,-0.19 3.511,-1.033 4.743,-2.53 l 10.196,-12.371 c 1.242,-1.507 1.767,-3.225 1.576,-5.155 -0.192,-1.929 -1.034,-3.509 -2.531,-4.741 -1.506,-1.243 -3.221,-1.766 -5.146,-1.57 -1.922,0.196 -3.5,1.043 -4.733,2.54 l -10.196,12.369 c -1.241,1.507 -1.767,3.226 -1.575,5.155 m 82.646,-304.72 c -1.039,1.48 -1.409,3.114 -1.106,4.902 l 2.5,14.787 c 0.305,1.803 1.197,3.226 2.681,4.274 1.48,1.046 3.107,1.42 4.881,1.12 1.8,-0.305 3.225,-1.198 4.273,-2.679 1.046,-1.482 1.418,-3.117 1.115,-4.904 l -2.499,-14.788 c -0.305,-1.802 -1.199,-3.226 -2.679,-4.273 -0.816,-0.576 -1.679,-0.94 -2.586,-1.107 -0.743,-0.138 -1.515,-0.146 -2.319,-0.01 -0.785,0.133 -1.483,0.398 -2.124,0.754 -0.829,0.461 -1.55,1.089 -2.137,1.924 m -17.652,2.861 7.076,26.425 11.395,-3.051 -1.077,-4.024 -7.393,1.978 -1.939,-7.243 5.401,-1.446 -1.078,-4.025 -5.4,1.447 -3.005,-11.22 -0.013,-0.049 -4.003,1.072 z m -41.094,18.527 13.367,23.76 5.675,-3.193 c 1.582,-0.889 2.606,-2.204 3.077,-3.945 0.471,-1.742 0.267,-3.396 -0.616,-4.963 l -7.042,-12.517 c -0.888,-1.579 -2.203,-2.618 -3.942,-3.116 -1.344,-0.385 -2.636,-0.353 -3.876,0.087 -0.365,0.129 -0.726,0.289 -1.082,0.489 l -5.676,3.194 z m -30.298,23.513 18.07,20.293 4.634,-4.127 c 1.222,-1.089 2.038,-2.393 2.447,-3.911 0.355,-1.296 0.201,-2.676 -0.458,-4.143 -0.349,-0.787 -0.896,-1.599 -1.645,-2.441 -1.225,-1.375 -2.574,-2.152 -4.043,-2.33 -0.618,-0.077 -1.216,-0.023 -1.796,0.16 0.455,-0.875 0.578,-1.913 0.367,-3.116 -0.151,-0.806 -0.519,-1.692 -1.104,-2.657 -0.303,-0.494 -0.687,-1.003 -1.155,-1.528 -1.155,-1.298 -2.384,-2.182 -3.682,-2.651 -1.014,-0.369 -2.06,-0.456 -3.137,-0.26 -0.7,0.127 -1.317,0.341 -1.87,0.623 -0.408,0.208 -0.785,0.449 -1.114,0.742 l -5.73,5.104 z m 22.397,-18.348 2.803,5.548 -3.52,2.516 -4.364,-4.428 -0.126,-0.127 -3.513,2.509 0.226,0.225 19.545,19.418 4.639,-3.314 -12.094,-24.77 -0.128,-0.263 -3.545,2.532 z m 96.702,-14.528 c -0.119,-1.94 -0.956,-3.536 -2.513,-4.788 l 2.283,-11.928 0.044,-0.231 -4.473,0.274 -0.019,0.108 -1.854,10.378 c -0.116,0.007 -0.24,0.013 -0.371,0.022 l -2.385,0.148 -0.631,-10.236 -0.006,-0.094 -4.136,0.253 0.012,0.207 1.676,27.216 6.523,-0.401 c 2.304,-0.143 3.957,-0.881 4.96,-2.217 0.879,-1.168 1.259,-2.743 1.137,-4.726 z m 3.594,15.682 c -79.583,0 -144.328,64.745 -144.328,144.328 0,79.583 64.745,144.328 144.328,144.328 79.583,0 144.328,-64.745 144.328,-144.328 0,-79.583 -64.745,-144.328 -144.328,-144.328 m 79.049,-12.155 c -1.733,0.52 -3.028,1.579 -3.887,3.176 l -7.101,13.21 c -0.866,1.609 -1.035,3.282 -0.507,5.018 0.528,1.735 1.589,3.032 3.186,3.891 1.61,0.865 3.279,1.032 5.008,0.501 1.73,-0.531 3.023,-1.594 3.882,-3.191 l 1.484,-2.762 -3.785,-2.034 -1.526,2.838 c -0.312,0.58 -0.785,0.965 -1.418,1.155 -0.634,0.191 -1.24,0.13 -1.82,-0.181 -0.579,-0.312 -0.961,-0.783 -1.144,-1.412 -0.185,-0.63 -0.121,-1.236 0.191,-1.814 l 7.122,-13.25 c 0.312,-0.579 0.78,-0.962 1.403,-1.15 0.624,-0.188 1.225,-0.125 1.804,0.186 0.58,0.312 0.966,0.78 1.161,1.407 0.194,0.628 0.134,1.231 -0.177,1.811 l -1.796,3.341 3.785,2.035 1.817,-3.38 c 0.866,-1.609 1.033,-3.279 0.501,-5.008 -0.268,-0.878 -0.675,-1.639 -1.215,-2.291 -0.526,-0.632 -1.175,-1.16 -1.956,-1.58 -0.778,-0.418 -1.57,-0.671 -2.376,-0.765 -0.863,-0.101 -1.741,-0.021 -2.636,0.249 m -16.486,-7.258 c -1.662,0.688 -2.838,1.871 -3.531,3.546 l -8.121,19.633 3.747,1.55 8.106,-19.593 c 0.251,-0.608 0.679,-1.035 1.29,-1.282 0.607,-0.246 1.215,-0.244 1.823,0.007 0.608,0.252 1.036,0.679 1.286,1.28 0.25,0.602 0.249,1.206 -0.003,1.814 l -8.104,19.595 3.992,1.65 8.121,-19.635 c 0.703,-1.701 0.702,-3.379 -0.007,-5.033 -0.401,-0.938 -0.976,-1.703 -1.689,-2.332 -0.543,-0.48 -1.161,-0.887 -1.885,-1.187 -0.739,-0.305 -1.476,-0.469 -2.209,-0.509 -0.943,-0.052 -1.882,0.108 -2.816,0.496 m -11.591,-5.532 c -0.208,-0.084 -0.403,-0.184 -0.625,-0.25 l -6.241,-1.863 -0.049,0.169 -7.812,26.18 6.241,1.862 c 1.736,0.519 3.394,0.341 4.975,-0.529 1.579,-0.872 2.626,-2.168 3.139,-3.892 l 4.107,-13.762 c 0.518,-1.738 0.352,-3.405 -0.499,-5 -0.74,-1.391 -1.833,-2.345 -3.236,-2.915 m 54.438,27.064 -3.61,-2.439 -0.117,0.126 -4.223,4.563 -3.584,-2.423 2.634,-5.649 0.068,-0.147 -3.576,-2.417 -0.116,0.256 -11.399,25.123 4.724,3.193 18.981,-19.958 z m 7.334,5.922 -3.226,-2.602 -0.11,0.136 -14.522,18.008 -3.431,-2.767 -2.616,3.243 10.071,8.122 2.615,-3.244 -3.413,-2.752 14.518,-18.003 z m 9.673,8.613 -3.024,-2.833 -0.132,0.141 -18.648,19.915 3.026,2.832 18.646,-19.913 z m 24.167,28.484 -2.638,-3.585 -0.162,0.053 -17.398,5.79 14.03,-10.325 0.15,-0.11 -2.456,-3.339 -0.254,0.186 -21.891,16.112 2.757,3.747 18.143,-6.523 -14.884,10.953 2.457,3.337 21.925,-16.133 z m -20.697,223.16 -8.663,-8.225 3.679,-3.874 8.674,8.236 0.368,0.349 3.051,-3.211 -0.446,-0.423 -20.85,-19.8 -3.051,3.213 9.026,8.569 -3.681,3.876 -9.023,-8.57 -3.051,3.211 20.817,19.769 0.479,0.454 3.051,-3.213 z m 3.011,4.928 c -34.429,34.43 -80.206,53.391 -128.897,53.391 -48.692,0 -94.469,-18.961 -128.898,-53.391 -34.43,-34.43 -53.392,-80.207 -53.392,-128.898 0,-48.691 18.962,-94.469 53.392,-128.898 71.075,-71.075 186.722,-71.075 257.795,0 34.43,34.429 53.392,80.207 53.392,128.898 0,48.691 -18.961,94.468 -53.392,128.898"
       style="fill:#e0241d;fill-opacity:1;fill-rule:nonzero;stroke:none"
       transform="matrix(1.3333333,0,0,-1.3333333,440.66587,435.22493)"
       clip-path="url(#clipPath106)" />
    <path
       id="path107"
       d="m 0,0 c -21.104,-15.927 -17.94,-14.235 -22.186,-17.463 -9.514,-7.231 -11.79,-10.917 -12.056,-11.391 l -0.271,-0.826 -0.659,-0.351 c -1.402,-1.057 -3.088,-1.615 -4.874,-1.615 h -0.002 c -2.861,0 -5.646,1.449 -7.446,3.878 l -0.303,0.404 c -2.489,3.356 -2.249,7.57 0.67,11.867 1.359,2.003 4.077,4.539 7.52,7.745 1.271,1.187 2.612,2.438 3.953,3.73 l 0.199,0.172 c 2.275,1.828 5.781,5.123 30.354,23.615 l 4.455,3.353 0.187,-5.6 C -0.285,12.279 0.244,7.363 1.11,2.906 L 1.46,1.101 Z M 16.982,-6.29 C 12.529,0.854 7.626,13.848 8.285,36.007 L -42.511,-2.395 c -16.129,-12.194 -18.678,-36.323 -5.683,-53.786 7.695,-10.34 19.607,-16.515 31.867,-16.515 1.858,0 3.688,0.147 5.484,0.425 -0.071,0.088 -0.143,0.173 -0.212,0.266 -0.83,1.14 -0.192,2.882 0.92,3.539 1.302,0.769 2.686,0.206 3.511,-0.929 0.623,-0.857 1.674,-1.08 2.725,-1.028 1.969,0.747 3.869,1.667 5.678,2.771 -0.853,0.613 -1.633,1.405 -2.312,2.372 -0.812,1.153 -0.208,2.874 0.92,3.539 1.287,0.759 2.704,0.22 3.509,-0.928 0.732,-1.04 1.927,-1.708 3.163,-1.142 0.075,0.035 0.152,0.056 0.228,0.086 l 4.671,3.532 c -0.924,0.438 -1.8,0.98 -2.596,1.631 -1.088,0.891 -0.912,2.739 0,3.658 1.065,1.074 2.544,0.888 3.629,0 1.101,-0.901 2.677,-1.34 4.178,-1.351 l 6.297,4.762 c -1.12,0.325 -2.229,0.755 -3.32,1.322 -2.943,1.527 -0.347,5.99 2.59,4.466 2.025,-1.051 4.313,-1.549 6.588,-1.359 l 5.774,4.364 c -1.636,0.465 -3.256,1.109 -4.944,1.84 -1.287,0.555 -1.562,2.436 -0.921,3.538 0.772,1.327 2.226,1.485 3.511,0.928 2.652,-1.146 5.343,-2.313 8.288,-1.808 0.006,0.002 0.01,0 0.016,0.002 l 8.051,6.086 C 37.867,-26.832 24.566,-18.463 16.982,-6.29"
       style="fill:#e0241d;fill-opacity:1;fill-rule:nonzero;stroke:none"
       transform="matrix(1.3333333,0,0,-1.3333333,217.72973,287.93067)"
       clip-path="url(#clipPath108)" />
    <path
       id="path109"
       d="m 0,0 c -7.697,10.312 -19.6,16.467 -31.837,16.467 -7.708,0 -14.97,-2.417 -21,-6.99 l -63.396,-48.08 c -0.131,-2.138 -0.21,-4.258 -0.239,-6.347 l 8.559,6.44 c 19.442,14.632 37.807,28.451 42.203,31.803 10.768,8.214 15.465,10.143 18.641,10.942 1.612,0.407 2.949,0.596 4.205,0.596 3.799,0 5.95,-1.824 7.084,-3.354 l 0.304,-0.412 c 1.683,-2.265 2.266,-5.607 1.487,-8.513 -0.573,-2.134 -1.787,-3.694 -3.423,-4.391 -0.601,-0.255 -1.249,-0.473 -1.935,-0.705 -2.028,-0.685 -4.807,-1.623 -8.451,-4.29 -2.968,-2.172 -35.53,-26.711 -66.679,-50.216 1.33,-6.014 3.31,-11.151 5.894,-15.286 7.509,-12.009 21.536,-20.076 32.542,-24.874 l 2.48,1.88 c -1.029,0.43 -2.02,1.005 -2.965,1.787 -1.082,0.894 -0.915,2.734 0,3.657 1.06,1.07 2.548,0.894 3.629,0 1.368,-1.131 3.251,-1.404 4.967,-1.173 l 3.308,2.508 c -1.638,0.495 -3.173,1.315 -4.462,2.509 -2.443,2.258 1.195,5.907 3.629,3.657 1.912,-1.769 4.887,-1.864 7.255,-1.145 0.093,0.029 0.179,0.034 0.268,0.053 l 3.151,2.389 c -2.198,0.38 -4.256,1.232 -5.834,2.805 -2.358,2.346 1.272,6.002 3.628,3.657 2.112,-2.102 6.398,-1.711 9.051,-1.145 0.068,0.015 0.129,0.013 0.194,0.021 l 3.804,2.886 c -1.868,0.615 -3.586,1.627 -4.874,3.116 -2.164,2.502 1.452,6.177 3.629,3.658 1.719,-1.989 4.734,-2.733 7.255,-2.18 0.02,0.004 0.036,0.003 0.056,0.006 l 5.226,3.964 c -2.01,0.462 -3.938,1.225 -5.638,2.425 -2.691,1.895 -0.129,6.382 2.59,4.465 2.709,-1.907 5.923,-2.362 9.148,-2.264 l 4.72,3.581 c -2.31,0.705 -4.537,1.854 -6.45,3.011 -2.832,1.715 -0.254,6.189 2.59,4.466 2.787,-1.687 7.319,-4.311 10.498,-2.328 0.148,0.093 0.295,0.159 0.44,0.219 l 1.852,1.404 c -2.258,0.602 -4.418,1.605 -6.142,2.705 -2.785,1.781 -0.214,6.26 2.59,4.466 2.848,-1.82 7.697,-3.838 10.754,-1.552 0.213,0.16 0.423,0.264 0.632,0.345 7.456,5.892 12.136,14.523 13.192,24.4 C 9.216,-18.762 6.329,-8.479 0,0"
       style="fill:#006cb4;fill-opacity:1;fill-rule:nonzero;stroke:none"
       transform="matrix(1.3333333,0,0,-1.3333333,391.78173,182.43267)"
       clip-path="url(#clipPath110)" />
  </g>
</svg>
